<?xml version="1.0" encoding="UTF-8"?> <svg xmlns="http://www.w3.org/2000/svg" viewBox="0 0 42.32 42.32"><defs><style>.cls-1{fill:none;stroke:#fff;stroke-miterlimit:10;stroke-width:2px;}.cls-2{fill:#fff;}</style></defs><title>Asset 3af</title><g id="Layer_2" data-name="Layer 2"><g id="Layer_1-2" data-name="Layer 1"><circle class="cls-1" cx="21.16" cy="21.16" r="20.16"></circle><path class="cls-2" d="M20.21,9h1.9a.85.85,0,0,0,.23,0,15.13,15.13,0,0,1,3.41.59,8.61,8.61,0,0,1,3.34,1.7,2.84,2.84,0,0,1,1.14,2.05A6.17,6.17,0,0,1,30,16.14l.31.14c1.35.66,2.57,1.43,3,3v2.18a3.54,3.54,0,0,1-1.52,2.17c-.44.31-.93.55-1.38.82a.74.74,0,0,0-.2.23c-.13.27-.24.55-.38.81a.27.27,0,0,0,0,.32,2.52,2.52,0,0,1,.45,1.53c0,.37,0,.73,0,1.09a2.89,2.89,0,0,1-1,2.3,6.92,6.92,0,0,1-2.59,1.57,16.47,16.47,0,0,1-10.2.3A8.24,8.24,0,0,1,13.26,31a3,3,0,0,1-1.19-2.61c0-.33,0-.66,0-1a2.53,2.53,0,0,1,.43-1.52.24.24,0,0,0,0-.31,2.16,2.16,0,0,1-.42-1.29,6.56,6.56,0,0,1,.23-2.64L12,21.48A6.79,6.79,0,0,1,9.86,20,2.86,2.86,0,0,1,9,17.91c0-.41,0-.82,0-1.23a2.61,2.61,0,0,1,.41-1.41,5.17,5.17,0,0,1,2.17-1.81,1,1,0,0,0,.61-.69,1.85,1.85,0,0,1,.31-.63,4.53,4.53,0,0,1,1.4-1.32,12.08,12.08,0,0,1,5-1.65Zm1,.76a14.44,14.44,0,0,0-5.42,1,6.24,6.24,0,0,0-2.32,1.47,1.8,1.8,0,0,0,0,2.74l0,.05a6.35,6.35,0,0,0,2.24,1.41,13.84,13.84,0,0,0,4.5.93,14.94,14.94,0,0,0,6.28-.92A6.18,6.18,0,0,0,28.84,15a1.81,1.81,0,0,0,0-2.76l-.05,0a6,6,0,0,0-1.94-1.28A14.18,14.18,0,0,0,21.2,9.79ZM19.29,22.64l.22.08a14.38,14.38,0,0,0,3.79.68,15.13,15.13,0,0,0,5.78-.74,6.88,6.88,0,0,0,2.73-1.58,1.82,1.82,0,0,0,0-2.89,6.25,6.25,0,0,0-2.09-1.31.25.25,0,0,0-.22,0,6.68,6.68,0,0,1-2.14,1.5.33.33,0,0,0-.17.16,3.68,3.68,0,0,1-1.65,2.17,10.6,10.6,0,0,1-4.09,1.58C20.73,22.46,20,22.54,19.29,22.64Zm9.88,3.67a7.93,7.93,0,0,1-2.75,1.56,15.71,15.71,0,0,1-6.38.81,11.79,11.79,0,0,1-6.91-2.34A1.45,1.45,0,0,0,13,28a3.5,3.5,0,0,0,.46.63,6.79,6.79,0,0,0,2.92,1.67,15.84,15.84,0,0,0,7.94.41,9.7,9.7,0,0,0,3.72-1.45,3.64,3.64,0,0,0,1.15-1.16A1.52,1.52,0,0,0,29.17,26.31Zm-6.06-6.72v-.06l-.3,0A16.27,16.27,0,0,1,16.55,19a8.22,8.22,0,0,1-3.3-1.68,3,3,0,0,1-1.18-2.58c0-.21,0-.42,0-.64a5.06,5.06,0,0,0-1.72,1.23,1.76,1.76,0,0,0,0,2.55l.13.14A6.31,6.31,0,0,0,13,19.54a15.64,15.64,0,0,0,8.91.4C22.33,19.84,22.72,19.71,23.11,19.59Zm3,6.08,0,0c-1.06,0-2.13,0-3.19,0a13.7,13.7,0,0,1-4.42-.94,6.43,6.43,0,0,1-2.65-1.76,1.51,1.51,0,0,0-1-.6c-.6-.09-1.19-.27-1.8-.42a1.48,1.48,0,0,0-.18,1,2.61,2.61,0,0,0,1,1.44,7.46,7.46,0,0,0,2.59,1.35,15.87,15.87,0,0,0,7.89.4C24.93,26,25.53,25.83,26.14,25.67Z"></path><path class="cls-2" d="M20.43,11.07v-.5h1.43v.5A4.53,4.53,0,0,1,25,12.19l-1.14.2-.18,0a1.21,1.21,0,0,1-1.06-.18A2.59,2.59,0,0,0,20.2,12a.54.54,0,0,0-.16.1c-.23.17-.23.41,0,.52a4.74,4.74,0,0,0,.84.23c1,.19,2.06.35,3.09.57a3.15,3.15,0,0,1,.95.44A.78.78,0,0,1,25,15.19a2.85,2.85,0,0,1-1.47.65c-.54.1-1.1.16-1.69.24v.66H20.44v-.67c-1.28-.15-2.59-.16-3.52-1.35l1.22-.14.42-.05c.32,0,.59-.09.85.25a1.55,1.55,0,0,0,1.27.43,12.55,12.55,0,0,0,1.5-.07,1,1,0,0,0,.45-.21.28.28,0,0,0,0-.52,3.08,3.08,0,0,0-.73-.22c-1-.18-2-.32-3-.53a3.56,3.56,0,0,1-1.12-.47.76.76,0,0,1-.07-1.32,3.12,3.12,0,0,1,1.59-.66C19.66,11.15,20,11.12,20.43,11.07Z"></path></g></g></svg> 