<?xml version="1.0" encoding="UTF-8"?> <svg xmlns="http://www.w3.org/2000/svg" viewBox="0 0 42.32 42.32"><defs><style>.cls-1{fill:#fff;}.cls-2{fill:none;stroke:#fff;stroke-miterlimit:10;stroke-width:2px;}</style></defs><title>Asset 4af</title><g id="Layer_2" data-name="Layer 2"><g id="Layer_1-2" data-name="Layer 1"><path class="cls-1" d="M14.59,20.62a5.06,5.06,0,1,1,6.53-7.71,4.85,4.85,0,0,1,1.58,3.94,5,5,0,0,1-2,3.75c.28.13.55.24.81.38A9.51,9.51,0,0,1,26,25.82a10.3,10.3,0,0,1,.81,3.95,1,1,0,0,1-.51.91.91.91,0,0,1-1-.07,1,1,0,0,1-.4-.82,8.09,8.09,0,0,0-.24-2A7.67,7.67,0,0,0,21.21,23a6.66,6.66,0,0,0-7.61.35,7.85,7.85,0,0,0-3.07,5.27,10.36,10.36,0,0,0-.1,1.24,1,1,0,1,1-1.9,0,10.15,10.15,0,0,1,2.12-6.22,9.14,9.14,0,0,1,3.78-2.89Zm-.1-4a3.16,3.16,0,1,0,3.18-3.16A3.16,3.16,0,0,0,14.49,16.58Z"></path><path class="cls-1" d="M28.75,21.11c.34.17.68.31,1,.49a7.29,7.29,0,0,1,3.56,4.49,11.9,11.9,0,0,1,.48,3.56,1,1,0,0,1-.93,1,.93.93,0,0,1-1-.92,12.49,12.49,0,0,0-.19-2.2,6.18,6.18,0,0,0-1.57-3.28,6,6,0,0,0-2.9-1.58,8.79,8.79,0,0,0-.89-.19,1,1,0,0,1-.88-.88,1,1,0,0,1,.72-1,2.77,2.77,0,0,0,1.89-2A2.83,2.83,0,0,0,25.36,15,.95.95,0,0,1,25,13.16a1.34,1.34,0,0,1,.35-.05A4.73,4.73,0,0,1,30,17.18,4.63,4.63,0,0,1,28.82,21Z"></path><circle class="cls-2" cx="21.16" cy="21.16" r="20.16"></circle></g></g></svg> 