<?xml version="1.0" encoding="UTF-8"?> <svg xmlns="http://www.w3.org/2000/svg" viewBox="0 0 42.41 42.41"><defs><style>.cls-1{fill:#fff;}</style></defs><title>Asset 2af</title><g id="Layer_2" data-name="Layer 2"><g id="Layer_1-2" data-name="Layer 1"><path class="cls-1" d="M21.19,0A21.21,21.21,0,1,1,0,21.22,21.24,21.24,0,0,1,21.19,0ZM1.41,21.22A19.8,19.8,0,1,0,21.19,1.41,19.84,19.84,0,0,0,1.41,21.22Z"></path><path class="cls-1" d="M34.66,20.53a7.06,7.06,0,0,1-9.46,6.61.36.36,0,0,0-.49.15,3.89,3.89,0,0,1-2.94,1.63,2.52,2.52,0,0,1-1.46-.36.69.69,0,0,0-1.08.55,3.85,3.85,0,0,0,0,.59,2.23,2.23,0,0,1-2.38,2.42c-.13,0-.25,0-.38,0-.64,0-.91.25-.92.89a2,2,0,0,1-.05.48.66.66,0,0,1-.7.46.68.68,0,0,1-.64-.54,2.23,2.23,0,0,1,2.14-2.72c.26,0,.51,0,.77,0a.7.7,0,0,0,.73-.75c0-.19,0-.37,0-.56A2.22,2.22,0,0,1,19,27.21a.32.32,0,0,0,.15-.27,3.75,3.75,0,0,1,1.59-3.57.38.38,0,0,0,.14-.51,7.07,7.07,0,1,1,13.69-3.2C34.64,20,34.64,20.24,34.66,20.53Zm-9.15,5.18A5.5,5.5,0,0,0,32,24a5.66,5.66,0,0,0-7.94-8,5.54,5.54,0,0,0-1.67,6.49A2.55,2.55,0,0,1,25.51,25.71Zm-3.92,1.8a2.8,2.8,0,0,0,2.55-2.22,1.09,1.09,0,0,0-1.24-1.35,2.78,2.78,0,0,0-2.34,2.51A1,1,0,0,0,21.59,27.51Z"></path><path class="cls-1" d="M20.86,37.46a16.51,16.51,0,0,0,10-3.21l.26-.18a.71.71,0,0,1,1,.14.69.69,0,0,1-.22,1,20.88,20.88,0,0,1-2.12,1.39,17.16,17.16,0,0,1-17.17,0A16.87,16.87,0,0,1,3.82,24.18,17.2,17.2,0,0,1,7.14,10.51a.78.78,0,0,1,.79-.4.72.72,0,0,1,.4,1.17c-.61,1-1.3,2-1.81,3a16.24,16.24,0,0,0,12.16,23C19.53,37.39,20.4,37.42,20.86,37.46Z"></path><path class="cls-1" d="M38.88,21.05a17.87,17.87,0,0,1-3.62,10.86c-.31.41-.67.51-1,.3a.73.73,0,0,1-.17-1.09,30.48,30.48,0,0,0,1.81-3,16.15,16.15,0,0,0-6.4-20.87C23.85,4,18.15,4.17,12.54,7.46c-.44.25-.84.58-1.25.87a.71.71,0,0,1-1-.11.71.71,0,0,1,.21-1,16.83,16.83,0,0,1,9.09-3.55,17.31,17.31,0,0,1,16.22,7.58,16.73,16.73,0,0,1,3,8.36C38.84,20.13,38.85,20.69,38.88,21.05Z"></path><path class="cls-1" d="M19.58,12.45a4.06,4.06,0,0,1-4.61,3,2.52,2.52,0,0,1-1.71-4A4.1,4.1,0,0,1,18,9.84a2.65,2.65,0,0,1,1.18.88.69.69,0,0,0,1.16-.06,2.92,2.92,0,0,0,.23-.58,2.23,2.23,0,0,1,3.21-1.31,4.46,4.46,0,0,0,.5.22.7.7,0,0,0,.88-.36c.08-.17.14-.35.23-.51a.69.69,0,0,1,.84-.3.71.71,0,0,1,.45.81,2.24,2.24,0,0,1-3.24,1.56L23,10a.73.73,0,0,0-1.06.44c0,.09-.08.17-.11.26A2.31,2.31,0,0,1,19.58,12.45ZM16.82,11a2.87,2.87,0,0,0-2.42,1.2A1.08,1.08,0,0,0,15.12,14a2.69,2.69,0,0,0,2.51-.77,1.33,1.33,0,0,0,.48-1.52A1.31,1.31,0,0,0,16.82,11Z"></path><path class="cls-1" d="M14.14,19.18a3.61,3.61,0,0,1-1.47,3,2.65,2.65,0,0,1-.82.37.7.7,0,0,0-.38,1.12,3.05,3.05,0,0,0,.44.44,2.23,2.23,0,0,1,0,3.44,3.58,3.58,0,0,0-.44.43.7.7,0,0,0,0,.9c.11.13.25.24.36.38a.65.65,0,0,1,0,.91.68.68,0,0,1-.94.11,2.24,2.24,0,0,1-.25-3.52,4.52,4.52,0,0,0,.5-.48.69.69,0,0,0,0-.92,5.4,5.4,0,0,0-.42-.41A2.2,2.2,0,0,1,10,22.47c.09-.25-.07-.31-.2-.4a4,4,0,0,1-.43-5.59,2.45,2.45,0,0,1,4,.19A4.18,4.18,0,0,1,14.14,19.18Zm-1.42,0a2.72,2.72,0,0,0-.53-1.71,1.05,1.05,0,0,0-1.77,0,2.81,2.81,0,0,0,0,3.24,1.05,1.05,0,0,0,1.79,0A2.57,2.57,0,0,0,12.72,19.15Z"></path><path class="cls-1" d="M23.34,20.31a4.24,4.24,0,0,1,4.08-4c.5,0,.82.24.84.67s-.26.7-.77.74a2.81,2.81,0,0,0-2.74,2.73c0,.52-.34.83-.76.8S23.32,20.85,23.34,20.31Z"></path></g></g></svg> 