<?xml version="1.0" encoding="UTF-8"?> <svg xmlns="http://www.w3.org/2000/svg" viewBox="0 0 30.44 30.44"><defs><style>.cls-1{fill:none;stroke:#fff;stroke-miterlimit:10;stroke-width:2px;}.cls-2{fill:#fff;}</style></defs><title>Asset 6af</title><g id="Layer_2" data-name="Layer 2"><g id="Layer_1-2" data-name="Layer 1"><circle class="cls-1" cx="15.22" cy="15.22" r="14.22"></circle><path class="cls-2" d="M8.21,15.22V8.93a2.15,2.15,0,0,1,2.26-2.28h6.2a.76.76,0,0,1,.58.25L22,11.64a.76.76,0,0,1,.23.55v9.44a2.12,2.12,0,0,1-2.16,2.16H10.35a2.12,2.12,0,0,1-2.14-2.13C8.2,19.51,8.21,17.37,8.21,15.22ZM16.1,7.94H10.41a.87.87,0,0,0-.92,1q0,6.33,0,12.66a.86.86,0,0,0,1,1H20a.87.87,0,0,0,1-1V12.79H18.29a1.88,1.88,0,0,1-.34,0,2.14,2.14,0,0,1-1.85-2.18c0-.81,0-1.61,0-2.41ZM20,11.5l-2.6-2.59v.4c0,.43,0,.85,0,1.28a.84.84,0,0,0,.75.91C18.75,11.53,19.37,11.5,20,11.5Z"></path><path class="cls-2" d="M15.2,15.09H11.9c-.44,0-.72-.24-.72-.63a.65.65,0,0,1,.71-.65h6.67a.66.66,0,0,1,.71.67.63.63,0,0,1-.66.61Z"></path><path class="cls-2" d="M15.22,17.73H11.9c-.44,0-.72-.24-.72-.63a.64.64,0,0,1,.71-.64c1.64,0,3.27,0,4.91,0,.58,0,1.17,0,1.76,0a.64.64,0,0,1,.7.68.61.61,0,0,1-.65.59Z"></path><path class="cls-2" d="M15.22,20.38H11.9a.64.64,0,0,1-.72-.63.65.65,0,0,1,.72-.65h5c.56,0,1.12,0,1.68,0a.64.64,0,0,1,.7.68.62.62,0,0,1-.65.6Z"></path></g></g></svg> 