<?xml version="1.0" encoding="UTF-8"?> <svg xmlns="http://www.w3.org/2000/svg" viewBox="0 0 30.44 30.44"><defs><style>.cls-1{fill:none;stroke:#fff;stroke-miterlimit:10;stroke-width:2px;}.cls-2{fill:#fff;}</style></defs><title>Asset 7af</title><g id="Layer_2" data-name="Layer 2"><g id="Layer_1-2" data-name="Layer 1"><circle class="cls-1" cx="15.22" cy="15.22" r="14.22"></circle><path class="cls-2" d="M19.72,10.75a2.44,2.44,0,0,1,0,.47,6.31,6.31,0,0,0,0,.64.09.09,0,0,0,.09.08h.48a.08.08,0,0,0,.09-.08,3.13,3.13,0,0,0-.66-2.48l.31.06a9.29,9.29,0,0,0,2.58,0l.29-.06a3.3,3.3,0,0,0-.66,2.48.08.08,0,0,0,.08.08h.49a.09.09,0,0,0,.09-.09v-.38a2.5,2.5,0,0,1,.18-1.22,1.19,1.19,0,0,1,.29-.34c.26-.27.59-.59.54-1-.1-.82-2.23-.87-2.66-.87l-.53,0c-.19,0-1.92.15-2,.85,0,.27.18.52.43.81A2.08,2.08,0,0,1,19.72,10.75Z"></path><path class="cls-2" d="M13.06,9.72a2.13,2.13,0,0,1,.35.39,2.26,2.26,0,0,1,.22,1.31v.43a.09.09,0,0,0,.09.09h.49a.09.09,0,0,0,.09-.08,3.27,3.27,0,0,0-.68-2.48l.31.06a8,8,0,0,0,1.29.09,8,8,0,0,0,1.29-.09l.3-.06a3.32,3.32,0,0,0-.66,2.48.08.08,0,0,0,.09.08h.48a.09.09,0,0,0,.09-.09v-.39a2.13,2.13,0,0,1,.23-1.3,1.82,1.82,0,0,1,.28-.33c.24-.25.52-.53.5-.83,0-.86-2-.93-2.65-.93l-.58,0c-.2,0-1.88.16-2,.85C12.58,9.27,12.82,9.5,13.06,9.72Z"></path><path class="cls-2" d="M7.1,9.92a1.22,1.22,0,0,1,.26.28,2,2,0,0,1,.18,1c0,.17,0,.37,0,.62a.09.09,0,0,0,.09.08h.48a.09.09,0,0,0,.09-.08,3.29,3.29,0,0,0-.67-2.47,1.46,1.46,0,0,0,.27,0,7.89,7.89,0,0,0,1.29.09,7.84,7.84,0,0,0,1.28-.09,2,2,0,0,0,.34-.07,3.24,3.24,0,0,0-.66,2.49.09.09,0,0,0,.09.08h.48a.09.09,0,0,0,.09-.08,4.65,4.65,0,0,0,0-.65,2,2,0,0,1,0-.69,1.92,1.92,0,0,1,.52-.76c.25-.26.48-.51.44-.82-.1-.81-2-.87-2.63-.87l-.6,0c-.43,0-1.85.18-2,.8C6.46,9.3,6.83,9.65,7.1,9.92Z"></path><path class="cls-2" d="M23.36,12.48h0a.27.27,0,0,0,.25-.11.06.06,0,0,0,0,0v-.09s0-.08,0-.12a.12.12,0,0,0-.1,0H7.05c-.13,0-.2,0-.22.14v0a.19.19,0,0,0,0,.16c0,.06.12.06.22.06H23.36Z"></path><path class="cls-2" d="M19.72,21.55a1.92,1.92,0,0,0,.62,1.38,2,2,0,0,0,1,.24h0a1.71,1.71,0,0,0,1-.3c.67-.52.6-2.21.55-3.71,0-.39,0-6.29,0-6.29s0-.22-.13-.24h-.45a.09.09,0,0,0-.09.09v4.76h-.82a.09.09,0,0,0-.09.08v3A2.7,2.7,0,0,1,21,21.62s0-3.26,0-3.95a.11.11,0,0,0,0-.12c-.05-.07-.45-.07-.48-.07h-.06c0-.28,0-.88,0-1.56,0-1.24,0-2.79-.05-3.21a.08.08,0,0,0-.08-.08h-.34l-.06,0C19.74,12.75,19.66,20.84,19.72,21.55Z"></path><path class="cls-2" d="M16.81,12.87c0-.07,0-.22-.13-.24h-.44a.09.09,0,0,0-.09.09v3.71c-.14,0-.76,0-.83,0a.09.09,0,0,0-.09.09c0,.84,0,1.5,0,2.14s0,1.42,0,2.37a1.06,1.06,0,0,1-.34.57c-.07-.06-.07-.18-.05-.35s0-1.74,0-2.46,0-1.33,0-2.16a.11.11,0,0,0,0-.12c0-.07-.14-.08-.24-.08h-.3c0-.17,0-.63,0-1.16a19.14,19.14,0,0,0-.06-2.61.09.09,0,0,0-.08-.06h-.34l-.06,0c-.11.1-.17.54-.13,2.55v.28s-.07,5.42,0,6.17a2,2,0,0,0,.47,1.17,1.7,1.7,0,0,0,1.12.34h0a1.76,1.76,0,0,0,1.12-.34c.62-.54.56-2.18.5-3.63C16.82,18.78,16.81,12.87,16.81,12.87Z"></path><path class="cls-2" d="M7.55,21.7a1.88,1.88,0,0,0,.51,1.17,1.77,1.77,0,0,0,1,.3,1.93,1.93,0,0,0,1-.24,1.9,1.9,0,0,0,.62-1.33,44.88,44.88,0,0,0,0-4.68c0-1.58-.09-3.07,0-4.05,0-.07,0-.22-.12-.24h-.45a.09.09,0,0,0-.09.09v6.37H9.23a.09.09,0,0,0-.09.09v1.35a1.8,1.8,0,0,1-.37,1.08.49.49,0,0,1,0-.28,1,1,0,0,0,0-.17v-1c0-.3,0-.62,0-.9a.18.18,0,0,0,0-.12c-.05-.07-.45-.07-.49-.07h0c0-.59,0-5.42-.05-6.38a.09.09,0,0,0-.09-.08H7.73l-.06,0c-.13.12-.12,5.32-.12,5.32C7.55,18.4,7.47,21,7.55,21.7Z"></path></g></g></svg> 