<?xml version="1.0" encoding="UTF-8"?> <svg xmlns="http://www.w3.org/2000/svg" viewBox="0 0 46.44 46.44"><defs><style>.cls-1{fill:#fff;}</style></defs><title>Asset 16af</title><g id="Layer_2" data-name="Layer 2"><g id="Layer_1-2" data-name="Layer 1"><path class="cls-1" d="M23.22,46.44A23.22,23.22,0,1,1,46.44,23.22,23.25,23.25,0,0,1,23.22,46.44Zm0-43.39A20.17,20.17,0,1,0,43.39,23.22,20.2,20.2,0,0,0,23.22,3.05Z"></path><path class="cls-1" d="M29.2,34.94a11,11,0,0,1-4.51-1.15c-5.74-2.9-10.23-7-12.43-13.21A8,8,0,0,1,11.65,16a6.39,6.39,0,0,1,3.89-4.33c.81-.37,1.14-.2,1.6.55.87,1.42,1.72,2.85,2.61,4.27a1,1,0,0,1-.18,1.5c-.6.56-1.24,1.07-1.85,1.62-.81.73-.93,1-.43,2A12.43,12.43,0,0,0,18.9,24a30.37,30.37,0,0,0,6.15,5.16c.88.57,1.17.51,1.87-.32.47-.56.9-1.16,1.39-1.71s1-.73,1.75-.26c1.44.84,2.86,1.71,4.32,2.52a.9.9,0,0,1,.48,1.18,5.84,5.84,0,0,1-4.58,4.21A7.64,7.64,0,0,1,29.2,34.94Z"></path></g></g></svg> 