<?xml version="1.0" encoding="UTF-8"?> <svg xmlns="http://www.w3.org/2000/svg" viewBox="0 0 30.44 30.44"><defs><style>.cls-1{fill:none;stroke:#fff;stroke-miterlimit:10;stroke-width:2px;}.cls-2{fill:#fff;}</style></defs><title>Asset 8af</title><g id="Layer_2" data-name="Layer 2"><g id="Layer_1-2" data-name="Layer 1"><circle class="cls-1" cx="15.22" cy="15.22" r="14.22"></circle><path class="cls-2" d="M14.57,7h1.3L16,7a10.82,10.82,0,0,1,2.33.4,6,6,0,0,1,2.28,1.16,2,2,0,0,1,.78,1.4,4.24,4.24,0,0,1-.15,1.87l.21.09a3.23,3.23,0,0,1,2,2.06v1.49a2.4,2.4,0,0,1-1,1.48c-.3.21-.63.37-.94.56a.4.4,0,0,0-.13.16c-.09.18-.17.37-.26.55a.15.15,0,0,0,0,.21,1.72,1.72,0,0,1,.3,1.05c0,.25,0,.5,0,.75a2,2,0,0,1-.65,1.57A4.78,4.78,0,0,1,19,22.83,11.19,11.19,0,0,1,12,23a5.6,5.6,0,0,1-2.21-1.13A2.09,2.09,0,0,1,9,20.13c0-.22,0-.45,0-.68a1.72,1.72,0,0,1,.29-1,.15.15,0,0,0,0-.21A1.57,1.57,0,0,1,9,17.33a4.57,4.57,0,0,1,.16-1.8L9,15.44a4.49,4.49,0,0,1-1.47-1A1.93,1.93,0,0,1,7,13c0-.28,0-.56,0-.84a1.71,1.71,0,0,1,.28-1A3.57,3.57,0,0,1,8.71,10a.63.63,0,0,0,.42-.46,1.08,1.08,0,0,1,.21-.43,3.06,3.06,0,0,1,.95-.91A8.23,8.23,0,0,1,13.7,7Zm.68.51a9.85,9.85,0,0,0-3.7.65,4.17,4.17,0,0,0-1.58,1A1.23,1.23,0,0,0,10,11l0,0a4.36,4.36,0,0,0,1.53,1,9.18,9.18,0,0,0,3.06.63A10.12,10.12,0,0,0,18.89,12a4.23,4.23,0,0,0,1.57-1,1.23,1.23,0,0,0,0-1.88l0,0a4,4,0,0,0-1.32-.87A9.93,9.93,0,0,0,15.25,7.46Zm-1.31,8.77.16.06a10.2,10.2,0,0,0,2.58.46,10.54,10.54,0,0,0,3.94-.51,4.57,4.57,0,0,0,1.87-1.08,1.24,1.24,0,0,0,0-2,4.37,4.37,0,0,0-1.42-.89.16.16,0,0,0-.15,0,4.64,4.64,0,0,1-1.46,1c-.05,0-.11.06-.12.11a2.51,2.51,0,0,1-1.13,1.48A7.16,7.16,0,0,1,15.4,16C14.93,16.11,14.45,16.16,13.94,16.23Zm6.74,2.5a5.39,5.39,0,0,1-1.87,1.07,10.75,10.75,0,0,1-4.36.55,8,8,0,0,1-4.71-1.6,1,1,0,0,0-.06,1.12,1.88,1.88,0,0,0,.31.43,4.46,4.46,0,0,0,2,1.14,10.8,10.8,0,0,0,5.41.28,6.49,6.49,0,0,0,2.54-1,2.59,2.59,0,0,0,.79-.79A1,1,0,0,0,20.68,18.73Zm-4.13-4.58v0h-.2a11.39,11.39,0,0,1-4.27-.37A5.8,5.8,0,0,1,9.82,12.6,2.07,2.07,0,0,1,9,10.84c0-.14,0-.29,0-.44a3.38,3.38,0,0,0-1.17.84,1.21,1.21,0,0,0,0,1.74l.09.1a4.51,4.51,0,0,0,1.73,1,10.68,10.68,0,0,0,6.08.27C16,14.32,16.28,14.23,16.55,14.15Zm2.07,4.15,0,0c-.72,0-1.45,0-2.17,0a9.23,9.23,0,0,1-3-.65,4.31,4.31,0,0,1-1.81-1.19,1,1,0,0,0-.69-.41c-.41-.07-.81-.19-1.23-.29a1,1,0,0,0-.12.7,1.73,1.73,0,0,0,.67,1,5,5,0,0,0,1.76.92,10.71,10.71,0,0,0,5.39.28C17.8,18.54,18.2,18.41,18.62,18.3Z"></path><path class="cls-2" d="M14.72,8.34V8h1v.35a3,3,0,0,1,2.14.76l-.78.14-.12,0a.82.82,0,0,1-.72-.13A1.75,1.75,0,0,0,14.57,9a.34.34,0,0,0-.12.06c-.15.11-.15.28,0,.35a2.67,2.67,0,0,0,.57.16c.7.13,1.41.25,2.1.4a1.85,1.85,0,0,1,.66.29.53.53,0,0,1,.05.89,2,2,0,0,1-1,.45c-.37.07-.75.11-1.15.17v.44h-1v-.45a3.08,3.08,0,0,1-2.4-.93l.83-.09.29,0c.21,0,.4-.07.58.17a1.09,1.09,0,0,0,.86.29,8.88,8.88,0,0,0,1-.05.63.63,0,0,0,.3-.14.2.2,0,0,0,0-.36,2,2,0,0,0-.49-.14c-.68-.13-1.36-.22-2-.37a2.25,2.25,0,0,1-.77-.32.52.52,0,0,1,0-.9A2.16,2.16,0,0,1,14,8.43C14.2,8.39,14.45,8.37,14.72,8.34Z"></path></g></g></svg> 