<?xml version="1.0" encoding="UTF-8"?> <svg xmlns="http://www.w3.org/2000/svg" viewBox="0 0 42.32 42.32"><defs><style>.cls-1{fill:none;stroke:#fff;stroke-miterlimit:10;stroke-width:2px;}.cls-2{fill:#fff;}</style></defs><title>Asset 1af</title><g id="Layer_2" data-name="Layer 2"><g id="Layer_1-2" data-name="Layer 1"><circle class="cls-1" cx="21.16" cy="21.16" r="20.16"></circle><path class="cls-2" d="M27.3,14.52a4.56,4.56,0,0,1,0,.64,6.25,6.25,0,0,0,0,.87.11.11,0,0,0,.12.11h.66A.12.12,0,0,0,28.2,16a4.31,4.31,0,0,0-.91-3.38l.43.09a11,11,0,0,0,1.75.12,11,11,0,0,0,1.76-.12,2.81,2.81,0,0,0,.4-.08A4.53,4.53,0,0,0,30.72,16a.12.12,0,0,0,.12.1h.66a.12.12,0,0,0,.12-.12v-.51a3.39,3.39,0,0,1,.25-1.67,2.12,2.12,0,0,1,.4-.47c.35-.36.79-.8.73-1.31-.13-1.13-3-1.19-3.62-1.19q-.37,0-.72,0c-.27,0-2.63.2-2.75,1.16,0,.36.25.71.59,1.1A2.88,2.88,0,0,1,27.3,14.52Z"></path><path class="cls-2" d="M18.21,13.12a3,3,0,0,1,.48.53A3.07,3.07,0,0,1,19,15.43V16a.12.12,0,0,0,.12.12h.66A.12.12,0,0,0,19.9,16,4.42,4.42,0,0,0,19,12.65l.42.09a11.13,11.13,0,0,0,1.76.12,10.91,10.91,0,0,0,1.75-.12l.42-.09A4.52,4.52,0,0,0,22.42,16a.12.12,0,0,0,.12.1h.66a.12.12,0,0,0,.12-.12c0-.2,0-.38,0-.54a3,3,0,0,1,.32-1.77,2.66,2.66,0,0,1,.38-.44c.33-.34.71-.73.69-1.14-.06-1.17-2.79-1.26-3.62-1.26-.28,0-.55,0-.79,0s-2.57.21-2.68,1.16C17.56,12.5,17.89,12.81,18.21,13.12Z"></path><path class="cls-2" d="M10.1,13.38a2.14,2.14,0,0,1,.35.39,2.59,2.59,0,0,1,.24,1.41c0,.24,0,.51,0,.85a.13.13,0,0,0,.12.11h.66A.11.11,0,0,0,11.6,16a4.46,4.46,0,0,0-.91-3.36l.37.07a11,11,0,0,0,1.75.12,11,11,0,0,0,1.76-.12,2.58,2.58,0,0,0,.45-.1,4.38,4.38,0,0,0-.89,3.4.12.12,0,0,0,.12.1h.66A.13.13,0,0,0,15,16a8.72,8.72,0,0,0,0-.89,2.67,2.67,0,0,1,.06-.93,2.65,2.65,0,0,1,.71-1c.34-.37.66-.71.61-1.12-.14-1.11-2.78-1.19-3.58-1.19-.29,0-.57,0-.83,0-.59,0-2.52.24-2.68,1.08C9.22,12.54,9.73,13,10.1,13.38Z"></path><path class="cls-2" d="M32.25,16.88h0a.36.36,0,0,0,.34-.15.14.14,0,0,0,0-.06v-.12a.23.23,0,0,0,0-.17.17.17,0,0,0-.14-.06h0s-22.14,0-22.2,0H10c-.17,0-.26,0-.3.19v0a.26.26,0,0,0,0,.21c.06.09.17.09.3.09h.17c.17,0,8.45,0,8.45,0Z"></path><path class="cls-2" d="M27.3,29.24a2.58,2.58,0,0,0,.84,1.87,2.6,2.6,0,0,0,1.36.33h0a2.35,2.35,0,0,0,1.42-.4c.91-.72.82-3,.74-5.05,0-.54,0-8.58,0-8.58s0-.3-.17-.32h-.61a.12.12,0,0,0-.12.12v6.48H29.59a.12.12,0,0,0-.12.12v4A3.69,3.69,0,0,1,29,29.34c-.05-.05,0-4.45,0-5.38a.21.21,0,0,0,0-.17c-.07-.09-.61-.1-.66-.1h-.08c0-.38,0-1.19,0-2.13,0-1.69,0-3.79-.07-4.37a.12.12,0,0,0-.12-.1h-.46l-.08,0C27.31,17.24,27.21,28.26,27.3,29.24Z"></path><path class="cls-2" d="M23.32,17.41c0-.1,0-.3-.17-.32h-.61a.12.12,0,0,0-.12.12v5.06a11.22,11.22,0,0,1-1.13,0,.13.13,0,0,0-.11.12c0,1.15,0,2,0,2.92s0,1.93,0,3.23a1.54,1.54,0,0,1-.47.78c-.1-.08-.09-.25-.07-.48s0-2.36,0-3.36,0-1.81,0-2.94a.19.19,0,0,0,0-.16c-.06-.1-.19-.11-.33-.11h-.4c0-.24,0-.87,0-1.59a24.9,24.9,0,0,0-.07-3.55.13.13,0,0,0-.12-.08h-.46l-.07,0c-.16.13-.24.74-.19,3.48,0,.18,0,.32,0,.38s-.11,7.38,0,8.41A2.73,2.73,0,0,0,19.63,31a2.33,2.33,0,0,0,1.53.47h0A2.39,2.39,0,0,0,22.69,31c.84-.74.75-3,.68-4.95C23.34,25.47,23.32,17.41,23.32,17.41Z"></path><path class="cls-2" d="M10.7,29.44a2.52,2.52,0,0,0,.71,1.6,2.36,2.36,0,0,0,1.43.41,2.49,2.49,0,0,0,1.34-.34,2.56,2.56,0,0,0,.85-1.8,60.63,60.63,0,0,0,0-6.37c-.06-2.16-.12-4.2,0-5.53,0-.09,0-.3-.17-.32h-.61a.12.12,0,0,0-.12.12v8.68H13a.12.12,0,0,0-.12.12v1.84a2.44,2.44,0,0,1-.51,1.47.9.9,0,0,1,0-.39,1.62,1.62,0,0,0,0-.22V27.38c0-.41,0-.84,0-1.22a.18.18,0,0,0,0-.17c-.07-.09-.62-.1-.66-.1H11.6c0-.8,0-7.39-.06-8.69a.13.13,0,0,0-.12-.11H11a.11.11,0,0,0-.08,0c-.19.16-.18,7.24-.18,7.24C10.7,24.94,10.6,28.42,10.7,29.44Z"></path></g></g></svg> 