<?xml version="1.0" encoding="UTF-8"?> <svg xmlns="http://www.w3.org/2000/svg" viewBox="0 0 42.32 42.32"><defs><style>.cls-1{fill:#fff;}</style></defs><title>Asset 10af</title><g id="Layer_2" data-name="Layer 2"><g id="Layer_1-2" data-name="Layer 1"><path class="cls-1" d="M21.16,42.32A21.16,21.16,0,1,1,42.32,21.16,21.18,21.18,0,0,1,21.16,42.32ZM21.16,2A19.16,19.16,0,1,0,40.32,21.16,19.18,19.18,0,0,0,21.16,2Z"></path><path class="cls-1" d="M29.45,27.75a2.91,2.91,0,0,1-3.11-.05A3,3,0,0,1,26,22.94a.43.43,0,0,0,.14-.58,2.35,2.35,0,0,1,1.32-3.08c.34-.14.28-.36.27-.6a2,2,0,0,1,2.71-1.84,1.87,1.87,0,0,1,1.18,1.4.37.37,0,0,0,.38.34,2.14,2.14,0,0,1,1.7,2.91c-.07.19-.17.34.07.53A3.08,3.08,0,0,1,34.65,26,3.15,3.15,0,0,1,31,27.45l-.47-.13v1.82c0,.86,0,.86.86.86h4.08a3.05,3.05,0,0,1,.43,0,.51.51,0,0,1,0,1,2.08,2.08,0,0,1-.35,0h-29a.51.51,0,0,1,0-1c.53,0,1.06,0,1.59,0,.35,0,.44-.11.44-.45q0-5.41,0-10.85c0-.7.12-.82.84-.82,1.89,0,3.78,0,5.67,0,.33,0,.42-.09.42-.41,0-1.77,0-3.53,0-5.29,0-.67.12-.79.8-.79h1.05c.23,0,.33-.07.32-.31s0-.6,0-.9.19-.56.58-.57c.63,0,1.27,0,1.9,0,.32,0,.4-.1.4-.4,0-.76,0-1.51,0-2.26,0-.47.18-.73.51-.73s.52.25.52.75c0,.74,0,1.48,0,2.22,0,.31.09.43.42.42.61,0,1.22,0,1.83,0s.63.17.64.63v.86c0,.21.09.3.3.29h1.44c.47,0,.65.18.65.63v6.1c0,.45-.18.65-.55.65s-.5-.3-.5-.67c0-1.74,0-3.48,0-5.22,0-.34-.07-.47-.45-.47q-4.17,0-8.36,0c-.35,0-.46.1-.46.46,0,2.23,0,4.46,0,6.69,0,3.37,0,6.73,0,10.1,0,.09,0,.18,0,.33.55,0,1.09,0,1.63,0,.36,0,.87.11,1-.08s.1-.7.11-1.07c0-.7,0-1.4,0-2.1,0-.54.17-.71.69-.71h2.29c.49,0,.66.17.66.66,0,1,0,1.94,0,2.91,0,.31.1.41.41.4.66,0,1.32,0,2,0,.35,0,.46-.12.42-.45a2.75,2.75,0,0,1,0-.5.48.48,0,0,1,.55-.44.59.59,0,0,1,.48.59c0,.79,0,.79.81.79.49,0,1,0,1.48,0,.24,0,.34-.06.34-.32C29.44,29.06,29.45,28.44,29.45,27.75ZM9.61,18.94c0,.16,0,.28,0,.41,0,3.42,0,6.85,0,10.27,0,.27.07.39.37.39q2.57,0,5.13,0c.34,0,.41-.12.41-.43q0-5.11,0-10.23c0-.36-.12-.42-.45-.42H9.61Zm20.88,5.33,1.26-.53a.53.53,0,0,1,.77.25c.12.28,0,.54-.37.7s-.84.4-1.28.56-.39.3-.39.61.3.4.52.49a2.08,2.08,0,0,0,2.8-1.06,2,2,0,0,0-1.15-2.69c-.64-.27-.71-.56-.22-1.08a1.13,1.13,0,0,0,.18-1.39,1.1,1.1,0,0,0-1.28-.48c-.61.15-.88-.1-.76-.73a.93.93,0,0,0-.46-1.06.94.94,0,0,0-1.26,1.3c.33.64.17.9-.57.95a1.32,1.32,0,0,0-1.16.8,1.34,1.34,0,0,0,.17,1.46c.43.54.39.76-.21,1.07a1.92,1.92,0,0,0-1,2.21,1.87,1.87,0,0,0,1.52,1.44,1.6,1.6,0,0,0,1.71-.65A.82.82,0,0,0,29,25.16l-1.1-.59c-.35-.2-.47-.49-.31-.76s.46-.34.82-.15l1,.54c0-.47,0-.86,0-1.24a.88.88,0,0,0-.62-1.07,1.93,1.93,0,0,1-.57-.33A.66.66,0,0,1,28,21.2a.46.46,0,0,1,.65-.55c.25.09.48.22.79.37,0-.32,0-.56,0-.8a.51.51,0,0,1,.53-.55c.3,0,.49.21.5.56s0,.45,0,.76l.53-.31a.49.49,0,0,1,.71.15.44.44,0,0,1-.13.67c-.28.19-.58.38-.86.58a.56.56,0,0,0-.24.32C30.48,23,30.49,23.59,30.49,24.27ZM20.38,27.08c0,.93,0,1.81,0,2.69,0,.08.17.21.27.22a5.57,5.57,0,0,0,1,0c.1,0,.26-.15.26-.23,0-.82,0-1.65,0-2.48a.25.25,0,0,0-.18-.19C21.31,27.07,20.86,27.08,20.38,27.08ZM21,11.4h2c.28,0,.35-.1.35-.36s-.05-.4-.36-.4c-1.34,0-2.69,0-4,0-.31,0-.33.15-.33.39s0,.38.34.37Z"></path><path class="cls-1" d="M26.49,33.25h-6c-.13,0-.29,0-.37,0a1,1,0,0,1-.38-.48c-.07-.25.12-.44.37-.5a1.83,1.83,0,0,1,.47,0H32.44a1.67,1.67,0,0,1,.39,0,.43.43,0,0,1,.36.52,1,1,0,0,1-.37.47c-.09.06-.25,0-.38,0Z"></path><path class="cls-1" d="M10.89,33.25H9c-.42,0-.68-.21-.67-.53s.24-.51.64-.51h3.81c.4,0,.64.19.64.51s-.24.53-.66.53Z"></path><path class="cls-1" d="M17.63,33.25c-.37,0-.64-.22-.63-.53a.57.57,0,0,1,.61-.52c.38,0,.65.21.65.52S18,33.25,17.63,33.25Z"></path><path class="cls-1" d="M21.12,18.93c-.36,0-.6-.2-.6-.51a.53.53,0,0,1,.61-.53.53.53,0,1,1,0,1Z"></path><path class="cls-1" d="M15.48,32.2c.39,0,.63.21.63.53s-.23.51-.59.52-.64-.19-.65-.5S15.1,32.21,15.48,32.2Z"></path><path class="cls-1" d="M18.65,18.94a.54.54,0,0,1-.6-.55c0-.31.24-.5.61-.5a.54.54,0,0,1,.61.51A.56.56,0,0,1,18.65,18.94Z"></path><path class="cls-1" d="M23.59,18.94a.53.53,0,1,1,0-1.05.53.53,0,0,1,.61.54A.55.55,0,0,1,23.59,18.94Z"></path><path class="cls-1" d="M18.66,17c-.37,0-.6-.19-.61-.5a.54.54,0,0,1,.61-.55.55.55,0,0,1,.61.55C19.27,16.8,19,17,18.66,17Z"></path><path class="cls-1" d="M21.14,17c-.38,0-.62-.2-.62-.52a.54.54,0,0,1,.59-.53.58.58,0,0,1,.64.54A.55.55,0,0,1,21.14,17Z"></path><path class="cls-1" d="M23.61,17a.53.53,0,1,1,0-1c.38,0,.63.2.63.52A.52.52,0,0,1,23.61,17Z"></path><path class="cls-1" d="M18.66,19.82a.55.55,0,0,1,.61.51c0,.31-.26.54-.66.53a.53.53,0,0,1-.56-.55C18.05,20,18.29,19.82,18.66,19.82Z"></path><path class="cls-1" d="M18.66,24.71c-.39,0-.62-.21-.61-.54s.23-.5.61-.49.63.22.61.53S19,24.71,18.66,24.71Z"></path><path class="cls-1" d="M18.67,15.07c-.39,0-.62-.19-.62-.52s.22-.5.59-.51.64.2.63.52A.53.53,0,0,1,18.67,15.07Z"></path><path class="cls-1" d="M18.64,22.78c-.38,0-.59-.19-.59-.51a.52.52,0,0,1,.58-.52c.38,0,.64.22.64.51S19,22.79,18.64,22.78Z"></path><path class="cls-1" d="M21.13,20.85c-.41,0-.61-.19-.61-.53s.28-.51.64-.5a.54.54,0,0,1,.59.53A.56.56,0,0,1,21.13,20.85Z"></path><path class="cls-1" d="M23.6,24.71c-.37,0-.64-.22-.63-.53a.58.58,0,0,1,.62-.52c.36,0,.6.2.61.5A.53.53,0,0,1,23.6,24.71Z"></path><path class="cls-1" d="M23.6,19.82c.37,0,.59.19.59.51a.51.51,0,0,1-.58.53.59.59,0,0,1-.64-.53A.62.62,0,0,1,23.6,19.82Z"></path><path class="cls-1" d="M23.58,22.78a.55.55,0,0,1-.61-.51c0-.3.26-.52.64-.52s.59.2.59.51S24,22.78,23.58,22.78Z"></path><path class="cls-1" d="M21.14,24.71c-.38,0-.64-.21-.63-.53a.56.56,0,0,1,.61-.52.59.59,0,0,1,.63.54A.55.55,0,0,1,21.14,24.71Z"></path><path class="cls-1" d="M23.58,15.07c-.36,0-.6-.21-.6-.51s.25-.52.63-.52.59.2.59.51S24,15.08,23.58,15.07Z"></path><path class="cls-1" d="M21.14,15.07c-.38,0-.63-.2-.63-.51s.24-.51.6-.52a.56.56,0,0,1,.64.52A.55.55,0,0,1,21.14,15.07Z"></path><path class="cls-1" d="M21.12,21.76c.36,0,.61.18.62.48a.54.54,0,0,1-.58.54c-.4,0-.64-.19-.64-.52S20.73,21.78,21.12,21.76Z"></path><path class="cls-1" d="M13.79,26.64a.56.56,0,0,1-.61-.51.57.57,0,0,1,.63-.54.53.53,0,1,1,0,1.05Z"></path><path class="cls-1" d="M11.35,26.64c-.38,0-.63-.2-.62-.53a.53.53,0,0,1,.59-.52c.37,0,.64.22.63.53A.54.54,0,0,1,11.35,26.64Z"></path><path class="cls-1" d="M11.34,27.53A.56.56,0,0,1,12,28a.57.57,0,0,1-.63.54.54.54,0,0,1-.6-.51C10.72,27.73,11,27.53,11.34,27.53Z"></path><path class="cls-1" d="M13.82,19.82a.54.54,0,0,1,.6.52c0,.31-.26.52-.67.52a.51.51,0,0,1-.54-.56C13.22,20,13.44,19.82,13.82,19.82Z"></path><path class="cls-1" d="M13.8,23.66a.55.55,0,0,1,.61.5c0,.35-.21.54-.6.55s-.62-.2-.63-.49A.58.58,0,0,1,13.8,23.66Z"></path><path class="cls-1" d="M11.3,24.71c-.36,0-.59-.22-.57-.54a.55.55,0,0,1,.61-.51.56.56,0,0,1,.61.55C11.94,24.53,11.69,24.72,11.3,24.71Z"></path><path class="cls-1" d="M14.41,28a.53.53,0,0,1-.58.53.57.57,0,0,1-.65-.52.54.54,0,0,1,.6-.52C14.17,27.52,14.41,27.71,14.41,28Z"></path><path class="cls-1" d="M11.35,22.78c-.38,0-.61-.17-.62-.48a.52.52,0,0,1,.55-.55c.43,0,.67.2.67.52S11.71,22.77,11.35,22.78Z"></path><path class="cls-1" d="M11.32,20.85c-.38,0-.57-.17-.58-.51s.21-.51.57-.51a.52.52,0,1,1,0,1Z"></path><path class="cls-1" d="M13.79,22.78c-.36,0-.61-.21-.61-.51s.25-.52.63-.52a.55.55,0,0,1,.61.51C14.42,22.58,14.17,22.78,13.79,22.78Z"></path></g></g></svg> 